<?xml version="1.0" encoding="UTF-8" standalone="no"?>
<!DOCTYPE svg PUBLIC "-//W3C//DTD SVG 1.1//EN" "http://www.w3.org/Graphics/SVG/1.1/DTD/svg11.dtd">
<svg width="100%" height="100%" viewBox="0 0 3508 4961" version="1.1" xmlns="http://www.w3.org/2000/svg" xmlns:xlink="http://www.w3.org/1999/xlink" xml:space="preserve" xmlns:serif="http://www.serif.com/" style="fill-rule:evenodd;clip-rule:evenodd;stroke-linejoin:round;stroke-miterlimit:2;">
    <g id="_2712587376656" transform="matrix(0.485257,0,0,0.485257,551.279902,1232.592749)">
        <path d="M1673.5,3055.14C1665.12,3036.55 1612.35,2987.51 1602.94,2967.5C1689.27,2974.79 1705.67,2985.6 1746.35,3035.5C1753.16,3024.5 1751.74,3023.48 1761.64,3010.1L1769.6,3042.08L1786.91,3048.05C1828.44,3082.21 1822.69,3091.12 1870.81,3103.48C1924.38,3117.24 1883.73,3109.07 1905.24,3102.75C1938.44,3143.4 1961.48,3083.49 1965.41,3144.78C1916.74,3145.15 1847.88,3129.06 1803.24,3116.91C1644.22,3073.62 1730.74,3084.76 1673.5,3055.14ZM2485.17,3184.47L2484.11,2919.49L2805.39,2908.61C2795.91,2977.39 2760.66,3073.36 2737.8,3135.73C2717.88,3190.06 2696.18,3177.32 2634.37,3180.39C2587.98,3182.7 2529.68,3188.59 2485.17,3184.46L2485.17,3184.47ZM1926.28,2884.24L2139.37,2906.54C2141.05,2907.27 2225.96,3173.06 2226.26,3175.47C2178.44,3172.87 2119.93,3168.86 2071.82,3162.31C2049.28,3159.24 2019.69,3156.1 1998.48,3151.57C1960.86,3143.53 1980.11,3118.07 1951.38,3113.73L1969.53,3102.27C1962.01,3037.49 2000.33,3023.56 1984.66,2973.77C1964.71,2910.41 1941.99,2912.78 1926.29,2884.25L1926.28,2884.24ZM2734.06,3172.45C2733.99,3167.04 2806.2,2955.6 2814.79,2906.08L3123.37,2874.22C3118.02,2918.96 3031.63,3064.48 3007.54,3099.36C2966.07,3159.41 2985.17,3148.62 2896,3159.82C2847.35,3165.93 2782.24,3172.75 2734.06,3172.44L2734.06,3172.45ZM2984.55,3149.28C2988.05,3139.76 3019.82,3097.51 3029.51,3083.21C3045.44,3059.7 3054.45,3038.72 3068.21,3014.54C3096.84,2964.25 3118.61,2920.41 3139.61,2868.7L3451.02,2798.39C3427.71,2868.35 3325.03,2999.39 3286.78,3041.9C3242.89,3090.7 3237.27,3093.83 3155.54,3113.33C3098.04,3127.05 3042.45,3137.22 2984.56,3149.27L2984.55,3149.28ZM2091.43,2448.6L2472.39,2463.43L2472.21,2772.17C2468.15,2794.59 2463.64,2781.32 2448.57,2795.59C2468.76,2812.84 2472.98,2770.63 2471.96,2833.03C2471.56,2857.54 2473.07,2883.73 2471.44,2907.9C2425.29,2914.2 2242.24,2900.59 2174.56,2897.7C2137.69,2896.12 2147.8,2898.39 2134.63,2831.44C2110.56,2709.08 2096.3,2574.14 2091.42,2448.61L2091.43,2448.6ZM3128.57,2859.53L2819.55,2896.53C2828.32,2822.72 2848.36,2755.59 2854.67,2681.64C2857.27,2651.18 2870.32,2461.36 2876.13,2451.57L3227.41,2416.3C3206.18,2548.04 3182.79,2754.76 3128.58,2859.54L3128.57,2859.53ZM2807.73,2895.75L2486.31,2910.29L2484.8,2462.7L2863.89,2450.8C2853.39,2608.82 2839.84,2746.02 2807.73,2895.75ZM2863.08,2437.14L2485.52,2453.53L2486.2,1874.52L2857.64,1863.05C2868.25,1939.14 2878.43,2374.23 2863.08,2437.14ZM2096.99,1861.47L2471.02,1876.74L2471.99,2449.59C2436.36,2458 2142.95,2443.32 2093.82,2437.28L2090.21,2423.66C2089.39,2418.45 2089.12,2410.16 2088.93,2404.68L2086.31,2297.42C2080.22,2125.54 2097.14,2011.11 2096.97,1861.47L2096.99,1861.47ZM3143.31,2855.46C3160.06,2788.9 3186.2,2722.26 3202.5,2647.44C3219.24,2570.56 3232.85,2492.62 3238.83,2412.08L3590.35,2338.58C3556.27,2435.3 3571.62,2547.26 3474.8,2758.84C3465.08,2780.1 3463.93,2775.96 3439.55,2785.27C3408.71,2797.04 3376.69,2804.14 3344.06,2812.33C3282.38,2827.81 3206.58,2849.27 3143.32,2855.46L3143.31,2855.46ZM2083.05,2436.49C2033.56,2438.1 1754.8,2413.68 1725.98,2396.93C1711.71,2256.1 1715.11,1960.63 1747.17,1823.77L2087.01,1863.53C2094.39,1927.2 2077.57,2067.21 2076.17,2144.34C2074.88,2215.4 2070.85,2374.52 2083.04,2436.49L2083.05,2436.49ZM2865.72,1860.65L3207.37,1825.57C3209.77,1905.39 3227.9,2014.47 3233.35,2105.81C3239.28,2205.08 3237.21,2301.35 3227.48,2401.4L2872.64,2438.88C2884.96,2369.32 2879.81,2219.36 2878.25,2144.34C2876.24,2047.6 2869.45,1955.43 2865.71,1860.65L2865.72,1860.65ZM3216.72,1820.82C3334.08,1807.65 3448.6,1765.08 3552.26,1741.78C3591.66,1924.72 3610.18,2122.74 3590.66,2319.26C3498.91,2354.19 3341.29,2385.48 3239.66,2398.71C3254.73,2128.24 3244.45,2077.89 3216.73,1820.82L3216.72,1820.82ZM1355.01,2316.55C1335.78,2319.18 1317.97,2311.67 1305.17,2302.21C1300.78,2293.49 1296.74,2271.71 1296.85,2259C1297.05,2234.72 1307.7,2237.85 1315.24,2224.71C1315.07,2224.44 1289.44,2186.94 1287.07,2184.74L1224.54,2246.9C1211.21,2253.38 1221.76,2242.83 1208.96,2253.83C1204.59,2257.58 1207.76,2255.09 1203.98,2260.1C1180.98,2290.56 1219.82,2250.65 1199.05,2267.16L1132.42,2241.65C1126.55,2218.99 1123.88,2193.04 1119.75,2169.81C1115.71,2147.18 1055.2,2031.89 1103.81,1966.93C1109.87,2001.18 1129.5,2040.59 1133.68,2054.16C1138.28,2069.08 1132.79,2074.14 1137.81,2090.27C1157.87,2088.81 1144.37,2083.26 1161.75,2068.79C1171.76,2060.45 1179.81,2061.24 1186.56,2047.39C1193.15,2033.85 1194.34,1974.14 1190.62,1957.6C1185.13,1933.21 1170.58,1908.7 1171.5,1880.32C1172.32,1855.22 1191.24,1827.86 1210.52,1824.46C1241.03,1858.3 1199.59,1863.14 1202.86,1898.48C1236.82,1898.66 1230.31,1873.72 1227.11,1843.39C1249.53,1842.02 1272.1,1831.72 1283.33,1830.27C1316.78,1825.95 1305.68,1830.39 1333.93,1812.34C1357.95,1796.98 1394.43,1764.18 1407.22,1739.03L1565.53,1785.67C1623.14,1798.93 1681.26,1813.15 1737.33,1820.46C1714.7,2093.99 1699.57,2100.96 1715.65,2397.76C1675.22,2399.05 1553.65,2369.77 1500.2,2359.89C1450.72,2350.75 1462.54,2353.21 1459.39,2319.68L1455.33,2344.09L1444.55,2320.65C1439.17,2324.39 1448.09,2333.78 1440.14,2344.81L1364.72,2324.18C1361.55,2294.45 1359.34,2272.23 1357.78,2243.66C1355.82,2207.76 1354.05,2200.67 1386.56,2189.36C1401.67,2221.75 1370.87,2217.66 1420.71,2239.73L1408.5,2215.12C1418.69,2217.34 1424.33,2240.81 1428.35,2205.84C1430.31,2188.75 1427.3,2171.97 1421,2158.35L1397.92,2177.51L1383.79,2164.05C1375.83,2181.21 1375.84,2176.91 1357.75,2184.82L1348.23,2090.06L1369.82,2097.66C1366.16,2088.1 1346.49,2082.24 1360.97,2056.78C1373.61,2057.45 1377.32,2062.37 1381.51,2072.82C1383.82,2078.58 1383.67,2081.84 1386.27,2087.4C1391.86,2099.35 1392.49,2095.95 1394.33,2098.16C1410.61,2117.6 1404.16,2140.4 1405.68,2148.75C1423.11,2142.46 1416.68,2122.02 1416.38,2094.58C1387.42,2077.71 1396.79,2100.81 1395.28,2062.46C1395.21,2060.83 1407.28,2056.89 1382.98,2049.08C1368,2044.27 1372.81,2049.51 1363.05,2044.83C1363.84,1994.77 1367.56,2020.3 1379.05,1991.17C1393.6,1954.27 1367.75,1945.3 1366.85,1941.5C1370.51,1913.81 1373.03,1885.03 1381.11,1859.78C1395.1,1816.06 1398.55,1842.43 1400.38,1785.54C1369.58,1801.26 1370.6,1865.03 1364.49,1903.61C1357.79,1945.84 1334.62,1991.63 1342.56,2028.71C1347.05,2049.66 1347.54,2033.04 1344.52,2054.38C1338.83,2094.67 1358.59,2259.17 1355,2316.54L1355.01,2316.55ZM1673.49,3055.14L1693.55,3082.23L1580.68,3039.52C1593.19,3060.65 1682.69,3084.63 1713.81,3099.14L1766.56,3142.03C1778.12,3153.12 1807.6,3176.53 1822.62,3181.89C1815.93,3170.62 1814.75,3175.45 1801.58,3164.54C1783.43,3149.53 1751.3,3127.56 1740.47,3110.23L1925.36,3151.67C1942.4,3160.9 1948.13,3179.82 1976.04,3181.6L1977.81,3153.71C2020.07,3194.62 2038.15,3228.32 2088.72,3263.79C2102.89,3273.73 2113.6,3289.19 2132.16,3290.37C2121.85,3272.31 2022.06,3209.22 1998.47,3162.72C2086.1,3177.18 2258.59,3197.37 2337.47,3186.77L2236.47,3175.94C2210.8,3153.44 2157.19,2964.85 2151.95,2905.87L2469.28,2921.3L2471.86,3183.59L2411.92,3184.06L2447.29,3135.6C2371.35,3137.46 2397.42,3101.55 2351.66,3091.66C2363.1,3117.77 2380.19,3100.58 2383.08,3139.37C2371.51,3169.3 2367.66,3130.31 2368.74,3168.48L2379.76,3152.62L2395.6,3184.63C2344.28,3173.19 2362.11,3174.35 2321.42,3205.49C2305.3,3217.82 2295.62,3218.44 2275.13,3226.57C2292.17,3278.16 2361.3,3229.4 2380.4,3192.76L2468.83,3195.41L2472.3,3363.61C2270.13,3368.76 1990.12,3297.22 1830.05,3212.88C1744.21,3167.65 1648.68,3117 1583.17,3061.38C1524.53,3011.59 1482.03,2984.19 1420.39,2925.62C1376.45,2883.87 1323.23,2818.22 1282.95,2764.62C1204.97,2660.88 1118.26,2505.07 1075.55,2374.91C1022.2,2212.32 984.69,2029.78 1001.66,1854.48C1004.42,1825.97 1000.42,1792.84 1019.59,1773.01C1044.6,1747.14 1017.65,1780.42 1032.62,1745.19C1036.78,1735.41 1049.95,1725.36 1061.46,1723.37C1063.39,1752.37 1061.12,1781.5 1062.7,1810.58C1064.52,1844.17 1055.07,1854.15 1054.98,1883.64L1075.31,1874.26C1088.27,1928.15 1065.9,2040.23 1076.96,2074.83C1085.22,2100.68 1088.47,2137.2 1093.87,2165.24C1102.58,2210.54 1111.13,2213.55 1124.84,2248.2C1087.55,2216.96 1079.75,2142.81 1053.63,2123.26C1047.33,2134.29 1112.46,2317.1 1120.24,2350.5C1129.91,2392.01 1172.45,2554.82 1196.24,2581.18L1127.81,2359.16L1159.61,2401.36L1157.01,2337.84L1175.54,2356.18C1173.19,2343.83 1167.99,2336.58 1161.24,2331.58C1149.03,2322.53 1151.3,2331.1 1140.13,2310.23C1131.76,2294.58 1125.72,2260.37 1124.69,2247.89L1179.36,2266.06L1208.8,2366.84C1223.69,2374.55 1228.17,2370.79 1246.85,2383.75C1274.89,2403.21 1249.09,2399.94 1283.96,2404.71C1287.32,2371.98 1290.11,2346.01 1302.38,2316.52L1333.45,2322.94C1331.35,2340.44 1324.19,2380.52 1325.06,2396.75C1326.26,2419.25 1330,2403 1334.54,2425.25C1337.93,2441.84 1330.55,2450.63 1344.48,2456.44C1360.51,2440.63 1337.82,2417.66 1348.31,2397.19L1372.6,2457.16C1381.3,2475.16 1385.09,2505.66 1389.8,2525.11C1394.19,2517.95 1391.24,2526.08 1392.36,2515.43L1388.64,2486.5C1383.86,2464.32 1388.83,2464.39 1386.21,2453.71L1363.56,2388.49L1388.64,2375.08C1370.91,2350.86 1363.68,2393.33 1364.35,2340.67C1385.7,2342.72 1389.98,2347.01 1416.73,2348.95C1443.66,2350.89 1442.08,2355.33 1451.64,2377.64L1454.51,2372.54C1461.97,2362.56 1453.97,2360.85 1472.79,2363.22C1477.01,2363.75 1498.48,2370.56 1506.27,2372.46C1571.41,2388.33 1645.65,2396.52 1711.88,2410.05L1724.92,2482.84C1696.02,2475.8 1673.77,2460.04 1649.58,2447.88C1613.03,2429.51 1609.69,2442.95 1585.59,2464.58C1565.52,2447.51 1569.48,2430.33 1557.8,2409.32C1542.74,2382.19 1512.93,2398.46 1496.6,2399.94C1508.74,2413.16 1504.18,2399.44 1520.42,2419.87C1538.48,2442.58 1528.43,2425.87 1550.09,2436.17L1529.14,2440.6C1533.9,2465.7 1540.09,2440.78 1538.1,2467.75C1565.32,2473.5 1530.59,2448.92 1574.28,2476.86C1588.75,2486.11 1602.44,2490.75 1616.89,2499.54C1677.73,2536.55 1644.1,2561.49 1638.17,2573.15C1660.78,2575.21 1669.45,2572.78 1687.1,2586.15C1710.21,2603.65 1718.32,2593.49 1734.08,2603.87L1761.27,2669.42L1746.92,2580.42C1813.42,2582.51 1791.44,2635.52 1871.61,2644.42L1877.27,2630.59C1854.08,2621.34 1864.19,2631.11 1842.47,2610.64C1830.77,2599.62 1823.25,2584.62 1810.7,2578.55C1812.38,2554.53 1834.24,2563.65 1796.18,2542.48C1777.99,2532.36 1778.83,2521.63 1763.57,2509.68C1743.13,2493.67 1721.97,2498.4 1728.2,2414.03L2079.17,2450.38L2095.37,2637.47L2076.54,2629.06C2108.2,2651.46 2094.62,2647.73 2100.62,2674.73C2105.89,2698.43 2108.78,2724.94 2113.19,2750.41C2121.62,2799.04 2133.65,2851 2141.25,2895.01C2107.88,2893.66 1949.8,2880.54 1918.06,2872.05C1896.22,2866.21 1886.32,2844.62 1875.52,2830.16C1864.96,2816.03 1845.06,2809.81 1827.89,2797.61C1805.98,2782.04 1801.7,2730.45 1787.32,2711.86C1770.33,2689.88 1778.49,2718.74 1764.87,2692.73C1755.3,2674.45 1744.96,2652.65 1735.93,2637.55C1707.06,2661.29 1737.39,2709.84 1721.44,2750.59C1695.48,2757.64 1693.11,2738.76 1669.03,2726.85L1621.51,2693.63C1625.8,2665.6 1636.83,2658.06 1639.1,2641.37C1625.67,2648.29 1615.45,2644.5 1593.98,2637.56C1580.82,2633.3 1563.84,2624.78 1554.95,2617.76L1556.85,2640.67C1544.46,2636.7 1536.95,2632.72 1529.61,2642.8C1521.84,2653.47 1525.21,2666.37 1520.51,2677.91C1507.68,2670.47 1505.37,2674.04 1496.21,2665.53C1490.85,2660.55 1494.25,2656.42 1478.41,2649.69C1457.15,2656.54 1429.34,2708.39 1418.28,2731.04C1378.68,2735.77 1382.14,2743.48 1345.22,2725.5C1327.97,2717.1 1289,2694.09 1279.49,2691.28C1291.42,2714.43 1349.29,2728.21 1369.86,2745.2C1351.6,2793.74 1414.4,2859.95 1444.41,2897.87C1454.57,2910.71 1483.84,2962.53 1495.41,2969.47C1519.39,2983.86 1519.74,2968.69 1544.95,2973.69C1591.41,2982.92 1560.49,2968.89 1589.38,2967.36L1673.46,3055.14L1673.49,3055.14ZM3543.72,1677.26C3566.78,1685.75 3563.73,1694.91 3575.95,1715.47C3589.04,1737.5 3635.22,1771.58 3646.09,1786.92C3649.94,1792.36 3654.7,1802.73 3659.7,1807.7C3669.38,1817.29 3670.2,1810.87 3681.39,1824.26C3714.68,1864.09 3692.5,1889.83 3734.1,1913.37C3800.49,1950.94 3804.37,1943.35 3828.23,1923.48C3849.9,1939.55 3845.14,1958.2 3884.02,1946.37C3920.86,2063.06 3889.92,1970.27 3931.56,2030.37L3936.56,2000.5C3954.27,2023.69 3937.17,2130.06 3928.86,2156.84C3915.2,2200.82 3914.69,2256.9 3902.26,2306.4C3859.87,2475.27 3766.48,2643.16 3667.54,2775.83L3609.26,2847.7C3518.32,2936.76 3487.62,2980.87 3375.36,3057.79C3363.99,3065.58 3362.1,3072.2 3351.96,3080.18C3341.45,3088.45 3310.63,3105.08 3297.43,3113.84C3225.37,3161.68 3149.92,3199.11 3064.06,3236.38C2972.62,3276.07 2905.62,3297.94 2801.09,3325.64C2699.23,3352.64 2591.15,3354.99 2484.77,3364.81L2484.86,3195.46L2709.58,3187.94L2678.48,3249.72C2667.26,3264.69 2668.28,3248.18 2667.64,3274.73C2692.37,3257.82 2705.21,3208.54 2726.04,3184.46L2948.83,3166.24C2943.5,3187.85 2902.69,3218.15 2876.39,3243.77C2854.14,3265.44 2807.52,3285.27 2788.53,3308.03C2843.52,3290.35 2932.58,3203.23 2962.39,3169.15C2981.05,3147.82 3054.47,3145.58 3088.93,3138.72C3131.83,3130.19 3178.21,3114.02 3216.11,3106.72C3197.5,3140.07 3129.45,3168.01 3114.19,3194.69C3162.79,3173.65 3232.93,3100.87 3242.39,3096.61C3293.81,3073.45 3362.64,3063 3400.3,3028.64L3257.36,3085.89C3298.86,3048.5 3409.64,2899.88 3440.8,2840.1C3483.58,2758.03 3442.23,2804.23 3564.66,2749.29C3595.33,2735.53 3690.3,2696.66 3705.05,2673.41C3663.2,2701.01 3535.18,2758.68 3476.56,2773.16C3483.88,2748.6 3508.4,2705.55 3519.12,2677.38C3545.75,2607.43 3601.27,2394.09 3596.23,2330.27C3676.08,2320.38 3822.89,2228.7 3845.91,2221.49C3834.62,2276.57 3830.4,2335.61 3816.21,2396.23C3802.87,2453.22 3783.07,2506.6 3770.92,2557.45C3786.66,2529.33 3813.35,2438.5 3822.2,2398.37C3834.63,2342 3841.34,2261.64 3853.5,2216.52L3913.45,2174.33C3872.52,2188.33 3878.52,2193.14 3840.23,2214.1C3767.67,2253.82 3684.58,2302.6 3597.01,2317.23C3618.29,2222.93 3605.38,2014.21 3591.88,1906.22C3587.43,1870.6 3571.73,1809.18 3571.23,1780.64C3596.15,1781.03 3601.81,1795.89 3609.95,1815.6C3619.16,1837.87 3632.2,1834.55 3647.42,1851.73C3649.35,1839.42 3606.9,1779.23 3596.97,1767.18C3590.87,1759.79 3589.75,1755.24 3583.47,1746.06C3572.72,1730.35 3578.55,1743.42 3566.97,1728.11C3554.1,1711.09 3546.96,1702.41 3543.7,1677.25L3543.72,1677.26ZM3768,1227.26C3781.13,1249.53 3798.31,1288.87 3807.1,1300.62C3834.05,1336.64 3898.96,1526.64 3911.36,1571.41C3933.74,1652.2 3985.1,1947.57 3927.74,1997.86C3888.01,1961.64 3924.51,1905.08 3897.13,1886.99C3874.49,1876.15 3904.25,1897.84 3868.26,1893.77L3865.47,1782.11L3840.11,1799.4L3815.01,1675.69C3822.1,1702.89 3827.32,1751.34 3831.97,1781.32C3837.41,1816.36 3854.76,1864.31 3817.67,1878.6C3790.93,1860.65 3772.24,1801.93 3767.69,1756.6C3764.84,1728.17 3753.44,1710.53 3757.16,1681.12C3762.5,1638.95 3777.65,1646.77 3805.31,1646.69C3797.31,1599.08 3796.18,1613.37 3843.16,1608.7L3879.83,1688.41C3886.87,1656.4 3857.88,1607.38 3848.22,1576.96C3829.85,1519.12 3859.59,1505.43 3816.67,1411.66C3814.23,1406.33 3815.05,1406.6 3812.88,1401.08C3807.36,1387.05 3800.21,1363.28 3796.58,1346.3C3786.15,1297.53 3765.92,1269.99 3767.98,1227.27L3768,1227.26ZM2485.14,1126.39C2514.71,1125.07 2705.09,1121.02 2731.21,1124.85C2755.41,1128.39 2751.48,1117.93 2753.9,1144.83C2755.42,1161.76 2754.48,1165.41 2761.39,1177.31L2755.24,1141.66C2770.74,1134.67 2775.3,1125.85 2785.82,1126.53C2777.03,1168.43 2794.32,1147.72 2762.63,1182.18C2732.43,1215.02 2699.41,1229.98 2696.19,1233.51C2713.66,1244.39 2705.26,1221.12 2765.08,1215.81C2782.94,1321.13 2806.88,1417.96 2820.33,1525.91C2832.23,1621.38 2854.19,1753.98 2854.6,1851.8L2485.97,1864.73L2485.13,1126.4L2485.14,1126.39ZM3545.51,1734.04C3515.1,1752.92 3269.39,1803.55 3215.31,1807.73C3195.08,1671.26 3166.17,1555.21 3130.4,1426.17C3117.18,1378.48 3003.14,1089.6 3003.15,1089.36C3006.26,1090.16 3055.25,1119.62 3061.05,1124.26C3079.57,1139.1 3090.57,1155.98 3107.59,1170.03L3103.66,1131.9C3114.95,1134.47 3117.09,1158.73 3121.22,1173.89C3125.7,1190.31 3117,1178.91 3132.26,1186.54C3148.2,1194.51 3137.05,1191.68 3145.17,1197.98L3149.46,1176.11L3137.3,1170.7C3136.5,1170.2 3135.55,1169.64 3134.82,1169.1C3134.12,1168.59 3133.26,1167.9 3132.64,1167.35C3129.01,1164.13 3125.7,1158.13 3123.84,1154.25C3156.34,1171.08 3165.26,1196.03 3187.6,1219.99C3221.07,1255.88 3205.28,1222.59 3222.47,1250.08C3243.73,1284.06 3232.13,1259.91 3254.22,1279.44C3244.2,1286.01 3253.69,1277.35 3242.29,1279.73C3239.35,1280.35 3241.54,1277.45 3232.03,1287.38C3296.51,1324 3292.75,1309.61 3321.44,1384.3C3340.01,1432.65 3346.09,1479.54 3367.81,1529.66C3375.44,1547.27 3391.94,1556.71 3409.29,1583.56C3462.26,1665.59 3467.22,1612.71 3508.04,1676.26C3518.47,1692.49 3530.96,1724.04 3545.51,1734.06L3545.51,1734.04ZM1955.35,1085.93C1944.16,1120.04 1931.66,1167.16 1915.46,1195.97C1904.4,1215.64 1906.67,1202.7 1897.39,1215.68C1893.18,1221.56 1889.57,1231.87 1885.76,1239.12C1876.29,1257.12 1878,1270.17 1870.41,1292.19C1857.89,1328.5 1843.58,1358.21 1831.72,1395.39C1811.27,1459.52 1799.35,1445.58 1788.66,1459.91C1783.39,1466.97 1780.89,1473.48 1784.68,1485.03L1799.57,1471.16C1807.2,1504.18 1792.47,1494.36 1782.69,1500.54C1771.43,1507.67 1771.42,1528.19 1765.79,1539.88C1758.25,1555.53 1749.96,1564.3 1737.73,1573.31C1702.7,1599.1 1718.08,1580.28 1706.16,1576.07L1677.44,1612.96C1638.02,1596.5 1617.61,1620.28 1589.3,1629.7C1599.23,1645.61 1605.95,1640.94 1621.63,1637.42C1635.8,1634.24 1649.16,1635.18 1662.13,1633.26C1665.92,1639.29 1657.76,1641.27 1664.36,1662.35C1675.09,1656.15 1678.19,1648.79 1687.9,1641.52C1688.97,1640.72 1692.91,1638.54 1694.06,1638.24L1710.26,1638.99C1712.51,1639.04 1715.06,1638.79 1716.93,1638.83C1731.21,1639.2 1718.04,1642.95 1728.62,1638.46C1760.04,1625.13 1718.94,1632.27 1748.66,1638.46C1763.53,1612.42 1767.77,1589.94 1779.91,1566.27C1788.04,1575.79 1784.29,1577.78 1780.06,1595.83C1777.82,1605.36 1775.82,1614.74 1773.82,1624.19C1756.88,1704.17 1754.26,1725.96 1742.91,1808.39C1651.79,1810.61 1505.54,1749.38 1414.5,1736.59C1418.59,1722.6 1423.91,1712.77 1427.21,1698.63C1432.15,1677.47 1429.46,1685.71 1419.77,1669.76C1434.88,1663.84 1434.86,1685.71 1434.62,1627.67C1434.4,1569.82 1413.52,1584.3 1451.19,1550.61C1459.56,1543.12 1454.43,1547.04 1465.97,1543.06L1484.04,1535.8C1467.96,1513.02 1467.94,1519.38 1440.27,1523.54C1439.1,1508.13 1438.23,1511.07 1450.64,1503.24L1437.63,1501.43L1437.68,1478.38C1452.93,1473.11 1424.82,1478.25 1444.44,1480.06C1463.9,1481.85 1451.62,1468 1504.37,1448.96C1511.56,1488.48 1486.91,1458.19 1487.66,1491.77L1536.43,1485.46C1544.93,1502.03 1534.02,1509.16 1525.36,1520.48C1546.77,1539.91 1553.71,1520.76 1541.06,1560C1535.19,1578.22 1528.83,1590.04 1525.72,1610.61C1547.54,1612.64 1526.66,1609.39 1543.03,1607.72C1543.7,1607.65 1544.83,1607.59 1545.53,1607.53L1575.77,1602.1C1591.13,1546.49 1584.05,1552.62 1577.68,1497.53C1597.09,1482.66 1610.22,1478.83 1623.2,1462.37C1631.8,1451.46 1657.06,1428.98 1672.35,1432.93C1692.55,1438.15 1671.7,1452.19 1698.85,1439.32C1728.33,1425.34 1826.76,1333.54 1841.05,1301.38C1858.66,1261.74 1846.7,1281.23 1871.96,1251.62C1887.62,1233.27 1880.24,1211.72 1872.05,1192.64C1856.14,1192.25 1846.36,1202.53 1839.24,1198.79C1821.91,1189.7 1842.14,1184.94 1844.55,1179.26L1816.04,1173.45L1955.36,1085.89L1955.35,1085.93ZM2866.47,1845.83C2856.23,1771.96 2854.49,1694.84 2843.86,1620.58C2833.59,1548.85 2823.04,1477.84 2810.9,1404.93C2805.14,1370.38 2767.56,1213.04 2774.02,1197.79C2778.16,1188.03 2796.53,1175.92 2804.46,1166.48C2811.78,1157.76 2811.7,1154.75 2816.72,1148.2C2840.13,1117.6 2837.93,1149.6 2829.89,1115.46C2826.19,1099.79 2826.67,1114.91 2834.86,1097.45C2842.17,1081.84 2840.66,1067.7 2862.6,1063.39L2846.7,1111.04C2853.61,1115.65 2837.68,1113.57 2850.32,1108.09C2864.29,1102.03 2862.96,1113.91 2870.87,1109.72C2884.67,1096.6 2876.34,1093.98 2897.03,1092.78C2908.55,1092.11 2916.5,1096.69 2932.1,1081.82C2907.73,1089.21 2904.74,1092.75 2887.73,1076.6C2911.56,1056.66 2935.06,1096.39 2986.51,1087.38C3035.51,1194.84 3078.2,1302.37 3119.64,1425.52C3139.48,1484.5 3207.8,1759.64 3200.21,1811.39C3170.68,1823.56 2884.71,1853.22 2866.47,1845.83ZM2194.45,1075.05C2203.76,1068.48 2216.67,1060.47 2227.66,1052.59C2247,1038.73 2242.26,1029.38 2259.6,1027.29C2255.27,1066.2 2218.44,1070.6 2177.15,1113.17C2159.72,1131.14 2160.58,1122.62 2144.55,1134.39C2063.84,1193.63 2116.9,1252.84 2092.61,1298.56C2105.8,1302.32 2163.3,1225.74 2174.96,1221.04C2177.42,1229.35 2130.66,1486.61 2124.98,1523.55C2116.93,1575.87 2110.03,1629.7 2104.02,1682.58C2099.35,1723.63 2096.45,1815.65 2088.44,1846.76C2055.35,1856.56 1805.52,1818.82 1751.94,1813.04C1761.41,1704.76 1811.74,1512.73 1811.95,1469.66L1835.75,1483.36C1855.88,1457.01 1846.08,1470.34 1875.81,1464.21L1879.76,1436.34C1873.51,1435.18 1879.96,1452.13 1852.76,1433.82C1838.37,1424.13 1836.89,1413.54 1838.33,1388.82L1860.63,1402.65L1877.35,1312.36L1893.63,1329.94C1890.02,1271.7 1943.07,1139.12 1962.93,1084.01C1982.99,1084.59 2001.44,1091.39 2022.19,1089.63C2061.91,1086.26 2019.17,1075.62 2070.59,1088.51L2067.79,1105.19L2120.56,1102.78L2111.52,1086.11C2126.37,1075.21 2147.24,1057.58 2163.36,1049.53C2209.25,1026.62 2196.01,1051.88 2194.45,1075.05ZM2471.86,1114.25C2395.55,1125.63 2241.45,1090.44 2223.54,1118.35L2472.03,1128.13L2471.59,1863.35C2436.5,1869.27 2131.46,1857.47 2100.09,1847.81C2101.67,1711.38 2140.55,1476.22 2167.34,1333.27L2190.6,1210.68C2198.63,1181.59 2191.72,1193.75 2213.53,1184.75L2212.53,1147.21L2225.06,1143.54C2205.15,1138.32 2209.35,1141.89 2205.54,1128.98C2231.22,1108.72 2218.06,1097.44 2259.27,1088.57C2286.53,1082.7 2256.35,1095.65 2288.96,1087.17C2312.09,1081.16 2312.01,1085.89 2328.05,1092.8C2352.25,1073.11 2417.15,1027.11 2457.96,1045.34C2464.24,1007.34 2447.79,1019.64 2439.89,988.07L2470.11,980.86L2471.87,1114.25L2471.86,1114.25ZM3428.12,898.15L3366.09,868.64L3372.82,888.23C3332.19,852.55 3374.65,844.88 3334.26,820.62C3318.78,811.32 3311.15,801.62 3301.43,795.81C3293.17,790.87 3259.87,782.87 3285.2,775.42C3296.67,772.05 3367.45,807.25 3392.51,835.07C3414.44,859.42 3405.21,844.73 3404.69,868.39C3440.23,883.82 3413.5,868.04 3434.06,891.28C3442.24,878.17 3420.13,885.29 3435.59,869.76C3444.78,883.2 3467.83,894.6 3488.54,897C3460.52,850.91 3427.2,845.37 3415.08,816.92C3437.49,826.96 3539.13,921.72 3560.04,949.86L3535.75,938.38L3554.47,961.79C3535.06,971.4 3539.22,958.33 3536.03,954.1C3523.11,936.98 3483.73,910.5 3457.12,906.62C3461.41,918.03 3489.54,946.43 3501.56,959.27C3530.73,990.39 3510.74,983.02 3529.08,992.05C3566.12,1010.29 3586.62,1062.25 3597.9,1081.36C3607.33,1097.32 3638.22,1128.13 3640.17,1141.99C3614.84,1138.34 3586.04,1092.23 3575.61,1078.12C3547.9,1075.59 3520.18,1062.24 3498.18,1054.93C3479.39,1048.7 3492.97,1065.53 3472.57,1046.22C3458.94,1033.32 3463.08,1035.55 3445.48,1026.87C3415.89,1012.28 3394.26,967.11 3387.28,935.72C3379.85,902.29 3382.95,925.29 3375.47,905.91L3383.97,892.72L3405.91,913.72C3425.99,907.41 3403.98,909.17 3411.82,903.24C3424.26,893.85 3411.43,909.12 3428.11,898.17L3428.12,898.15ZM2240.01,511.78C2313.87,494.08 2386.94,483.55 2469.72,483.91C2482.59,534.37 2458.67,807.71 2477.29,824.71C2491.3,816.38 2484.73,682.19 2484.64,655.62C2484.45,599.25 2487.57,538.7 2482.92,483.06C2561.24,482.45 2661.56,514.26 2719.72,543.24L2909.64,649.3C2889.32,622.81 2799.44,578.47 2762.66,557.61C2736.77,542.92 2668.99,509.65 2641.16,503.64C2618.93,498.84 2607.73,502.56 2594.01,489.55C2696.9,490.82 2839.26,526.59 2934.25,554.86C2925.22,578.17 2931.71,551.19 2915.03,563.77C2921.25,575.74 2923.9,579.05 2934.24,589.24C2951.97,606.71 2954.85,620.65 2980.26,627.11C2999.93,632.11 3002.76,626.07 3012.43,641.09L2940.21,632.25C2949.8,639.87 2959.9,640.38 2973.4,645.75C2991.19,652.82 3029.96,656.92 3048.48,651.44C3058.85,648.38 3065.19,640.51 3074.01,662.57L3039.71,667.09C3045.48,675.41 3067.15,679 3068.95,687.28L3027.09,677.26C3038.74,689.8 3059.18,699.76 3080.68,699.84C3077.06,688.04 3069.28,690.08 3074.29,680.83C3104.75,698.98 3083.41,678.82 3107.72,707.28L3159.71,693.88C3146.17,658.98 3125.43,691.73 3084.05,672.47L3116.42,663.27C3101.53,648.96 3074.4,638.4 3055.65,620.7C3041.22,607.07 3028.9,609.24 2996.93,585C3013.91,585 3029.95,595 3043.68,601.96C3087.65,624.24 3063.73,626.33 3081.55,633.61C3088.11,634.98 3102.46,634.92 3111.28,637.67C3123.21,641.39 3120.25,644.93 3132.23,645.9C3162.7,648.36 3144.58,640.79 3179.78,657.28C3223.23,677.63 3397.19,784.42 3407.34,810.74C3356.78,793.51 3342.01,770.71 3313.36,760.89C3282.7,750.38 3250.45,716.93 3214.06,729.25C3214.39,709.16 3211.95,703.36 3191.54,710.47C3168.17,718.62 3190.24,720.71 3157.56,713.01C3165.82,732.92 3211.32,767.44 3240.45,775.94C3289.26,790.19 3295.89,807.02 3321.2,834.9C3303.96,830.49 3291.63,815.11 3279.27,806.56C3255.27,789.95 3172.73,779.68 3152.55,714.35L3122.12,715.85C3136.86,739.76 3143.53,735.7 3163.2,750.43C3183.5,765.64 3183.51,771.94 3198.05,784.43C3229.74,811.66 3256.17,808.89 3273.86,848.32L3247.45,829.35L3246.52,846.42C3219.2,846.84 3209.12,837.27 3192.13,852.37L3217.89,878.38C3196.73,871.7 3200.34,864.54 3184.8,863.13C3165.32,861.36 3162.61,874.66 3147.93,868.85C3141,866.11 3138.13,867.36 3140.09,855.46C3143.28,836.03 3136.86,851.76 3150.54,847.72C3167.37,842.76 3164.49,843.68 3173.77,828.02L3204.58,828.21C3196.44,805.07 3171.48,798.25 3149.67,787.11C3134.74,779.48 3100.54,750.59 3093.44,748.88C3079.05,747.88 3087.32,757.88 3068.67,761.84C3045.63,766.75 2992.25,726.23 2970.98,745.58C2951.41,763.38 3004.14,808.43 3033.11,805.21C3028.27,791.19 3019.54,778.98 3028.38,765.97C3034.47,780.56 3037.58,792.87 3050.92,798.41C3067.09,805.13 3064.61,796.37 3068.4,805.34C3077.64,827.15 3058.76,797.78 3070.47,811.99L3115.25,813.1L3089.47,827.84C3107.38,839.6 3116.79,827.63 3125.65,846.97C3110.15,853.63 3090.13,841.28 3069.29,839.51C3030.07,836.19 3068.11,843.66 3044.82,843.51C3037.6,843.46 3032.31,840.5 3026.72,833.27L3024.55,849C2989.2,814.11 3000.56,834.94 2995.87,836.71C2978.67,843.19 2974.15,835.16 2978.22,855.25L2967.85,840.86L2966.08,866.73C2924.41,849.77 2958.58,881.08 2919.86,863.93C2903.95,856.89 2890.28,856.44 2873.32,853.11L2823,846.64C2801.72,848.11 2790.44,846.53 2773.35,846.25C2748.61,845.84 2763.24,845.72 2750.42,840.93C2728.16,832.62 2708.1,836.12 2688.14,847.42C2679.42,852.36 2676.08,855.11 2671.24,858.16C2661.48,864.34 2666.28,859.57 2659.54,871.79C2645.31,897.58 2644.34,878.67 2628.14,900.52C2645.42,924.29 2679.9,922.35 2692.05,950.68C2653.63,957.31 2656.28,938.47 2618.46,965.13L2653.44,995.96L2708.74,990.4C2714.57,1019.05 2694.25,1022.4 2671.91,1028.86L2658.15,1060.16L2680.12,1099.43L2715.93,1103.35C2685.52,1124.61 2533.17,1117.47 2484.33,1115.77L2487.74,967.67C2519.85,958.22 2510.32,982.1 2557.67,994.63C2569.88,980.26 2559.61,981.65 2569.76,969.95C2577.15,961.44 2582.54,965.54 2591.94,957.93C2579.34,949.99 2574.74,945.38 2562.19,937.61C2527.13,915.9 2546.68,950.46 2524.71,926.43C2514.43,915.19 2498.05,907.24 2484.46,896.7C2476.89,828.41 2491.56,853.72 2500.45,835.47C2479.51,822.84 2477.73,828.58 2458.75,835.69C2462.91,859.58 2458.62,835.69 2467.62,845.69C2479.08,858.42 2473.49,869.71 2475.44,890.96C2427.37,866.27 2418.77,872.84 2366.32,860.71C2362.68,871.85 2363.23,884.45 2353.12,885.73C2331.1,888.5 2341.9,877.5 2335.71,864.67C2313.27,871.94 2322.91,876.22 2288.59,866.92C2257.51,858.5 2267.55,864.78 2247.19,870.46C2247.83,852.08 2256.1,850.37 2242.11,833.66C2209.59,822.99 2163.67,852.18 2171.77,799.15C2146.49,802.08 2145.11,787.94 2114.66,780.67C2088.78,774.49 2082.98,792.6 2067.82,803.37C2049.89,799.91 2037.11,799.36 2022.56,796.54C2002.92,792.73 1998.19,810.58 1987.89,799.44C1976.94,784.37 2011.73,769.57 2010.08,747.42C1965.03,726.52 1997.28,752.92 1960.66,751.84C1947.28,744.94 1939.34,728.39 1920.15,723.19C1903.52,718.69 1885.7,733.61 1869.44,724.61C1922.3,700.82 1939.21,707.74 1990.71,673.54L1969.01,655.08L1987.32,636.38C1963.63,641.6 1945.62,653.78 1922.76,656.23C1887.3,660.03 1855.28,665.27 1824.28,680.1C1807.91,687.93 1815.98,679.26 1798.17,682.19C1772.56,686.4 1770.27,710.43 1754.12,718.32L1766.22,684.62C1759.28,687.82 1750.02,707.01 1700.59,719.93L1744.93,691.91C1732.07,683.73 1730.77,698.71 1717.18,688.69C1792.96,654.19 1865.97,608.82 1956.3,578.57C2001.21,563.53 2190.88,495.63 2231.02,510.17C2178.09,538.2 2007.83,564.25 1989.83,624.98C2006.85,632.9 2016.79,626.24 2026.86,614.15C2044.99,592.37 2032.64,605.78 2033.66,600.91C2034.84,595.21 2026.8,600.82 2039.7,589.62C2057.54,574.14 2205.27,518.78 2229.82,519.65C2251.71,520.42 2241.05,520.62 2240.94,517.41C2239.88,487.12 2225.14,549.36 2240.04,511.76L2240.01,511.78ZM2405.39,408.89C2158.78,415.98 1858.53,513.58 1669.7,632.75C1605.97,672.97 1504.06,743.71 1447.06,792.58C1414.09,820.85 1379.41,858.05 1348.67,889.49C1148.3,1094.44 1007.19,1353.23 951.42,1639.89C929.12,1754.53 915.89,1877.84 922.88,1998.99C934.28,2196.62 997.38,2444.14 1087.07,2600.89C1136.03,2686.45 1182.9,2767.81 1237.64,2832.94C1265.09,2865.61 1296.7,2909.89 1324.37,2937.57C1333.54,2946.74 1340.95,2949.73 1349.69,2958.14C1359.19,2967.3 1362.72,2975.29 1372.78,2984.86C1536.37,3140.47 1686.78,3233.86 1900.11,3326.08C2068.4,3398.84 2357.83,3454.99 2557.46,3436.84C2793.84,3415.36 2967.75,3371.69 3163.3,3278.13C3306.82,3209.46 3447.8,3112.74 3560.84,3005.8C3579.45,2988.19 3592.6,2972.38 3609.68,2955.26C3837.57,2726.89 4062.94,2325.53 4031.51,1849.69C4016.03,1615.32 3956.34,1427.39 3866.88,1248.13C3771.74,1057.47 3654.06,934.64 3532.3,813.74C3430.61,712.77 3202.84,574.17 3057.18,519.76C2845.25,440.61 2663.02,401.46 2405.37,408.88L2405.39,408.89Z" style="fill:rgb(240,235,205);"/>
        <path d="M2325.96,4729.61C2324.63,4462.68 2344.13,4107.03 2229.54,3857.76C2211.51,3818.54 2193.77,3786.76 2174.76,3751.89C2140.15,3688.41 2077.91,3623.55 2025.67,3575.67C1996.23,3548.69 1973.76,3526.48 1939.52,3501.28C1782.28,3385.54 1631.91,3347.43 1519.96,3277.77C1468.86,3245.97 1416.68,3223.9 1373.31,3183.33C1361.69,3172.46 1339.18,3155.11 1326.51,3145.82C1264.98,3100.73 1224.49,3039.64 1173.82,2977C1135.62,2929.77 1097.8,2894.02 1058.9,2850.9C1040.94,2830.99 1030.96,2828.01 1016.77,2812.66C905.39,2692.24 711.42,2705.19 729.38,2840.37C744.68,2955.54 964.31,3218.98 1066.85,3309.97C1108.92,3347.3 1187.97,3430.82 1218.65,3479.64C1253.72,3535.44 1313.25,3621.14 1326.03,3699.6C1306.22,3684.34 1250.3,3600.97 1227.67,3573.97C1209.65,3552.46 1143.67,3471.74 1122.39,3453.47C1100.47,3434.66 1080.95,3417.22 1066.69,3398.08L896.25,3227.97C858,3192.85 742.19,3019.56 707.78,2964.63C677.26,2915.91 659.33,2850.04 671.45,2784.49C681.95,2727.78 649.8,2655.05 637.41,2598.73C611.81,2482.35 599.11,2332.42 561.66,2226.77C539.09,2163.1 524.19,2120.07 471.15,2091.4C383.04,2043.79 373.88,2123.72 373.43,2194.2C372.6,2325.29 398.86,2474.89 410.54,2607.41C434.37,2877.72 431.27,2934.45 547.69,3144.06C610.02,3256.29 642.76,3337.91 697.78,3445.76C750.27,3548.65 781.05,3648.69 874.71,3720.16C973.76,3795.73 1099.22,3891.65 1198.84,3958.57C1222.15,3974.23 1247.26,3991.13 1266.25,4005.96C1502.06,4190.22 1640.44,4271.58 1634.77,4647.26C1633.36,4740.67 1618.01,4729.65 1650.01,4731.12C1723.04,4734.47 1802.47,4731.61 1876.46,4731.39C2018.66,4730.96 2189.36,4739.78 2325.97,4729.62L2325.96,4729.61Z" style="fill:rgb(240,235,205);"/>
        <path d="M3628.86,3703.66C3639.33,3643.73 3704.6,3521.81 3732.7,3483.93C3746.36,3465.52 3755.51,3454.67 3767.65,3438.51C3794.54,3402.71 3928.34,3267.66 3964.74,3233.77C3992.44,3207.97 4012.16,3177.72 4039.95,3148.33C4084.96,3100.72 4133.26,3019.59 4174.91,2957.87C4326.7,2732.94 4112.99,2656.02 3939.11,2810.24C3878.23,2864.24 3837.96,2913.8 3782.88,2975.31C3726.29,3038.52 3717.61,3076.46 3626.88,3144.66C3611.56,3156.17 3599.4,3168.39 3582.92,3181.26C3521.61,3229.12 3401.81,3302.13 3331.99,3332.11C3157.13,3407.17 2966.49,3508.77 2850.89,3658.54C2737.18,3805.87 2690.35,3908.48 2655.21,4109.87C2638.28,4206.88 2635.17,4306.69 2631.27,4406.15C2629.71,4445.95 2626.6,4710.25 2632.28,4729.5L3324.77,4731.6C3315.34,4621.1 3317.88,4461.84 3357.71,4364.31C3405.88,4246.36 3458.65,4198.19 3531.23,4131.97C3567.03,4099.3 3602.83,4072.37 3642.51,4040.53L3760.66,3955.83C3848.05,3896.69 4030.32,3764.5 4110.19,3693.06C4195.82,3616.47 4211.02,3539.15 4262.11,3439.44L4327.99,3302.35C4347.95,3251.69 4433.27,3103.52 4464.79,3033.35C4518.66,2913.45 4522.86,2837.2 4537.4,2696.71C4550.17,2573.33 4565.05,2451.56 4573.92,2327.9C4581.19,2226.47 4620.01,1989.31 4461.78,2108.23C4377.02,2171.93 4348.1,2455.86 4324.19,2579.19C4313.23,2635.71 4289.3,2687.32 4282.76,2743.72C4274.63,2813.88 4305.05,2831.89 4269.97,2918.86C4239.38,2994.7 4072.73,3223.45 4016.88,3274.41C3996.95,3292.59 3873.54,3408.96 3863.75,3423.64C3845.36,3451.21 3830.95,3447.82 3812.14,3475.37C3799.63,3493.69 3779.84,3509.04 3765.46,3528.28C3749.76,3549.28 3731.35,3565.72 3718.26,3584.37C3699.95,3610.45 3646.39,3688.52 3628.85,3703.67L3628.86,3703.66Z" style="fill:rgb(240,235,205);"/>
        <path d="M1673.5,3055.14L1589.42,2967.36C1560.53,2968.89 1591.45,2982.92 1544.99,2973.69C1519.79,2968.68 1519.43,2983.86 1495.45,2969.47C1483.87,2962.53 1454.6,2910.71 1444.45,2897.87C1414.44,2859.96 1351.64,2793.74 1369.9,2745.2C1349.33,2728.22 1291.46,2714.44 1279.53,2691.28C1289.05,2694.1 1328.01,2717.1 1345.26,2725.5C1382.17,2743.48 1378.71,2735.77 1418.32,2731.04C1429.38,2708.39 1457.19,2656.54 1478.45,2649.69C1494.3,2656.41 1490.89,2660.55 1496.25,2665.53C1505.4,2674.04 1507.72,2670.47 1520.55,2677.91C1525.25,2666.36 1521.88,2653.46 1529.65,2642.8C1537,2632.72 1544.5,2636.7 1556.89,2640.67L1554.99,2617.76C1563.88,2624.78 1580.86,2633.3 1594.02,2637.56C1615.49,2644.5 1625.71,2648.29 1639.14,2641.37C1636.87,2658.06 1625.84,2665.6 1621.55,2693.63L1669.07,2726.85C1693.16,2738.76 1695.52,2757.64 1721.48,2750.59C1737.43,2709.84 1707.1,2661.29 1735.97,2637.55C1745.01,2652.65 1755.35,2674.45 1764.91,2692.73C1778.53,2718.75 1770.37,2689.88 1787.36,2711.86C1801.73,2730.45 1806.02,2782.05 1827.93,2797.61C1845.1,2809.81 1865,2816.04 1875.56,2830.16C1886.36,2844.62 1896.26,2866.21 1918.1,2872.05C1949.83,2880.54 2107.92,2893.67 2141.29,2895.01C2133.69,2850.99 2121.66,2799.04 2113.23,2750.41C2108.82,2724.94 2105.93,2698.43 2100.66,2674.73C2094.66,2647.73 2108.24,2651.46 2076.58,2629.06L2095.41,2637.47L2079.21,2450.38L1728.24,2414.03C1722.01,2498.41 1743.17,2493.67 1763.61,2509.68C1778.87,2521.63 1778.03,2532.36 1796.22,2542.48C1834.29,2563.65 1812.42,2554.52 1810.74,2578.55C1823.28,2584.62 1830.81,2599.62 1842.51,2610.64C1864.23,2631.11 1854.12,2621.34 1877.31,2630.59L1871.65,2644.42C1791.49,2635.52 1813.46,2582.51 1746.96,2580.42L1761.31,2669.42L1734.12,2603.87C1718.35,2593.49 1710.25,2603.65 1687.14,2586.15C1669.49,2572.78 1660.81,2575.2 1638.21,2573.15C1644.14,2561.48 1677.77,2536.55 1616.93,2499.54C1602.47,2490.74 1588.78,2486.11 1574.32,2476.86C1530.63,2448.92 1565.36,2473.51 1538.14,2467.75C1540.12,2440.78 1533.94,2465.7 1529.18,2440.6L1550.13,2436.17C1528.47,2425.87 1538.51,2442.58 1520.46,2419.87C1504.22,2399.44 1508.78,2413.17 1496.64,2399.94C1512.96,2398.46 1542.78,2382.2 1557.84,2409.32C1569.51,2430.34 1565.56,2447.51 1585.63,2464.58C1609.73,2442.95 1613.07,2429.51 1649.62,2447.88C1673.81,2460.04 1696.06,2475.8 1724.96,2482.84L1711.92,2410.05C1645.69,2396.51 1571.45,2388.33 1506.31,2372.46C1498.52,2370.56 1477.05,2363.75 1472.83,2363.22C1454.01,2360.85 1462,2362.56 1454.55,2372.54L1451.68,2377.64C1442.12,2355.33 1443.7,2350.9 1416.77,2348.95C1390.02,2347.02 1385.73,2342.72 1364.39,2340.67C1363.72,2393.33 1370.95,2350.86 1388.68,2375.08L1363.6,2388.49L1386.25,2453.71C1388.87,2464.38 1383.9,2464.32 1388.68,2486.5L1392.4,2515.43C1391.28,2526.08 1394.23,2517.95 1389.84,2525.11C1385.14,2505.65 1381.34,2475.16 1372.64,2457.16L1348.35,2397.19C1337.87,2417.66 1360.55,2440.63 1344.52,2456.44C1330.59,2450.63 1337.97,2441.85 1334.58,2425.25C1330.04,2403.01 1326.3,2419.25 1325.1,2396.75C1324.24,2380.53 1331.4,2340.44 1333.49,2322.94L1302.42,2316.52C1290.15,2346.01 1287.36,2371.98 1284,2404.71C1249.13,2399.93 1274.93,2403.2 1246.89,2383.75C1228.2,2370.79 1223.72,2374.55 1208.84,2366.84L1179.4,2266.06L1124.73,2247.89C1125.77,2260.37 1131.8,2294.58 1140.17,2310.23C1151.34,2331.1 1149.08,2322.53 1161.28,2331.58C1168.02,2336.58 1173.22,2343.82 1175.58,2356.18L1157.05,2337.84L1159.65,2401.36L1127.85,2359.16L1196.28,2581.18C1172.49,2554.82 1129.95,2392.01 1120.28,2350.5C1112.5,2317.11 1047.38,2134.29 1053.67,2123.26C1079.79,2142.81 1087.59,2216.96 1124.88,2248.2C1111.18,2213.56 1102.62,2210.55 1093.91,2165.24C1088.52,2137.2 1085.27,2100.68 1077,2074.83C1065.94,2040.22 1088.31,1928.14 1075.35,1874.26L1055.02,1883.64C1055.11,1854.15 1064.56,1844.17 1062.74,1810.58C1061.17,1781.5 1063.43,1752.38 1061.5,1723.37C1049.99,1725.35 1036.82,1735.41 1032.66,1745.19C1017.69,1780.42 1044.64,1747.15 1019.63,1773.01C1000.46,1792.84 1004.46,1825.97 1001.7,1854.48C984.73,2029.78 1022.23,2212.32 1075.59,2374.91C1118.3,2505.08 1205.01,2660.88 1282.99,2764.62C1323.28,2818.21 1376.49,2883.86 1420.43,2925.62C1482.07,2984.18 1524.57,3011.59 1583.21,3061.38C1648.72,3117 1744.25,3167.65 1830.09,3212.88C1990.16,3297.22 2270.17,3368.76 2472.34,3363.61L2468.87,3195.41L2380.44,3192.76C2361.34,3229.4 2292.21,3278.15 2275.17,3226.57C2295.66,3218.44 2305.34,3217.83 2321.46,3205.49C2362.15,3174.36 2344.32,3173.19 2395.64,3184.63L2379.8,3152.62L2368.78,3168.48C2367.7,3130.31 2371.54,3169.3 2383.12,3139.37C2380.23,3100.58 2363.14,3117.77 2351.7,3091.66C2397.46,3101.55 2371.4,3137.46 2447.33,3135.6L2411.96,3184.06L2471.9,3183.59L2469.32,2921.3L2151.99,2905.87C2157.23,2964.86 2210.85,3153.45 2236.51,3175.94L2337.51,3186.77C2258.62,3197.37 2086.14,3177.18 1998.51,3162.72C2022.1,3209.22 2121.89,3272.31 2132.2,3290.37C2113.64,3289.19 2102.93,3273.72 2088.76,3263.79C2038.19,3228.32 2020.1,3194.61 1977.85,3153.71L1976.08,3181.6C1948.17,3179.83 1942.45,3160.9 1925.4,3151.67L1740.51,3110.23C1751.33,3127.55 1783.47,3149.53 1801.62,3164.54C1814.79,3175.44 1815.97,3170.62 1822.66,3181.89C1807.65,3176.53 1778.17,3153.12 1766.6,3142.03L1713.85,3099.14C1682.74,3084.62 1593.24,3060.65 1580.72,3039.52L1693.59,3082.23L1673.53,3055.14L1673.5,3055.14Z" style="fill:rgb(23,41,61);"/>
        <path d="M2240.02,511.79C2225.13,549.39 2239.86,487.15 2240.92,517.44C2241.03,520.65 2251.69,520.45 2229.8,519.68C2205.25,518.81 2057.52,574.17 2039.68,589.65C2026.79,600.84 2034.82,595.24 2033.64,600.94C2032.63,605.81 2044.97,592.4 2026.84,614.18C2016.78,626.27 2006.84,632.92 1989.81,625.01C2007.81,564.28 2178.07,538.23 2231,510.2C2190.86,495.66 2001.19,563.56 1956.28,578.6C1865.95,608.84 1792.94,654.22 1717.16,688.72C1730.75,698.74 1732.05,683.76 1744.91,691.94L1700.57,719.96C1750,707.03 1759.26,687.85 1766.2,684.65L1754.1,718.35C1770.25,710.46 1772.54,686.44 1798.15,682.22C1815.96,679.29 1807.89,687.96 1824.26,680.13C1855.26,665.3 1887.28,660.06 1922.74,656.26C1945.6,653.81 1963.61,641.63 1987.3,636.41L1968.99,655.11L1990.69,673.57C1939.19,707.77 1922.28,700.86 1869.42,724.64C1885.68,733.64 1903.5,718.72 1920.13,723.22C1939.32,728.42 1947.26,744.96 1960.64,751.87C1997.26,752.94 1965.01,726.55 2010.06,747.45C2011.71,769.6 1976.92,784.41 1987.87,799.47C1998.17,810.61 2002.9,792.76 2022.54,796.57C2037.08,799.39 2049.86,799.94 2067.8,803.4C2082.97,792.62 2088.76,774.52 2114.64,780.7C2145.1,787.97 2146.48,802.11 2171.75,799.18C2163.65,852.21 2209.56,823.02 2242.09,833.69C2256.09,850.4 2247.81,852.12 2247.17,870.49C2267.52,864.81 2257.48,858.53 2288.57,866.95C2322.89,876.25 2313.25,871.97 2335.69,864.7C2341.88,877.53 2331.08,888.53 2353.1,885.76C2363.22,884.48 2362.66,871.88 2366.3,860.74C2418.75,872.87 2427.35,866.3 2475.42,890.99C2473.47,869.75 2479.05,858.45 2467.6,845.72C2458.6,835.72 2462.89,859.61 2458.73,835.72C2477.71,828.61 2479.49,822.87 2500.43,835.5C2491.54,853.75 2476.87,828.44 2484.44,896.73C2498.03,907.27 2514.41,915.21 2524.69,926.46C2546.67,950.5 2527.11,915.93 2562.17,937.64C2574.72,945.41 2579.32,950.02 2591.92,957.96C2582.52,965.57 2577.13,961.48 2569.74,969.98C2559.59,981.68 2569.86,980.29 2557.65,994.66C2510.3,982.12 2519.83,958.25 2487.72,967.7L2484.31,1115.8C2533.16,1117.5 2685.5,1124.64 2715.91,1103.38L2680.1,1099.46L2658.13,1060.19L2671.89,1028.89C2694.23,1022.43 2714.55,1019.08 2708.72,990.43L2653.42,995.99L2618.44,965.16C2656.25,938.49 2653.61,957.34 2692.03,950.71C2679.88,922.38 2645.4,924.32 2628.12,900.55C2644.32,878.7 2645.29,897.61 2659.52,871.82C2666.27,859.59 2661.47,864.36 2671.22,858.19C2676.06,855.13 2679.41,852.39 2688.12,847.45C2708.07,836.14 2728.13,832.64 2750.4,840.96C2763.22,845.75 2748.59,845.87 2773.33,846.28C2790.42,846.56 2801.7,848.15 2822.98,846.67L2873.3,853.14C2890.26,856.47 2903.93,856.92 2919.84,863.96C2958.57,881.1 2924.39,849.79 2966.06,866.76L2967.83,840.89L2978.2,855.28C2974.13,835.19 2978.65,843.22 2995.85,836.74C3000.54,834.97 2989.18,814.15 3024.53,849.03L3026.7,833.3C3032.29,840.53 3037.59,843.49 3044.8,843.54C3068.09,843.69 3030.04,836.22 3069.27,839.54C3090.11,841.31 3110.13,853.65 3125.63,847C3116.78,827.65 3107.36,839.63 3089.45,827.87L3115.23,813.13L3070.45,812.02C3058.74,797.82 3077.63,827.19 3068.38,805.37C3064.58,796.41 3067.07,805.17 3050.9,798.44C3037.57,792.9 3034.45,780.59 3028.36,766C3019.52,779.01 3028.25,791.22 3033.09,805.24C3004.12,808.46 2951.39,763.4 2970.96,745.61C2992.23,726.26 3045.62,766.78 3068.65,761.87C3087.3,757.9 3079.03,747.91 3093.42,748.91C3100.52,750.62 3134.73,779.52 3149.65,787.14C3171.46,798.28 3196.43,805.1 3204.56,828.24L3173.75,828.05C3164.47,843.71 3167.34,842.79 3150.52,847.75C3136.84,851.79 3143.26,836.06 3140.07,855.49C3138.12,867.39 3140.98,866.14 3147.91,868.88C3162.6,874.69 3165.3,861.39 3184.78,863.16C3200.32,864.57 3196.71,871.73 3217.87,878.41L3192.11,852.4C3209.09,837.3 3219.17,846.87 3246.5,846.45L3247.43,829.38L3273.84,848.35C3256.15,808.92 3229.72,811.69 3198.03,784.46C3183.49,771.96 3183.48,765.67 3163.18,750.46C3143.51,735.73 3136.84,739.79 3122.1,715.88L3152.53,714.38C3172.7,779.71 3255.24,789.98 3279.25,806.59C3291.61,815.14 3303.94,830.52 3321.18,834.93C3295.87,807.04 3289.24,790.21 3240.43,775.97C3211.3,767.47 3165.8,732.95 3157.54,713.04C3190.22,720.75 3168.16,718.65 3191.52,710.5C3211.93,703.38 3214.37,709.19 3214.04,729.28C3250.43,716.96 3282.68,750.41 3313.34,760.92C3341.99,770.74 3356.76,793.54 3407.32,810.77C3397.17,784.45 3223.21,677.66 3179.76,657.31C3144.56,640.82 3162.68,648.39 3132.21,645.93C3120.23,644.97 3123.19,641.42 3111.26,637.7C3102.44,634.96 3088.09,635.02 3081.53,633.64C3063.7,626.36 3087.62,624.28 3043.66,601.99C3029.93,595.03 3013.89,585.03 2996.91,585.03C3028.88,609.27 3041.2,607.1 3055.63,620.73C3074.37,638.43 3101.51,648.99 3116.4,663.3L3084.03,672.5C3125.41,691.76 3146.15,659.01 3159.69,693.91L3107.7,707.31C3083.39,678.85 3104.74,699.01 3074.27,680.86C3069.25,690.11 3077.04,688.07 3080.66,699.87C3059.16,699.79 3038.72,689.83 3027.07,677.29L3068.93,687.31C3067.13,679.03 3045.45,675.44 3039.69,667.12L3073.99,662.6C3065.17,640.54 3058.83,648.41 3048.46,651.47C3029.94,656.94 2991.16,652.84 2973.38,645.78C2959.88,640.41 2949.79,639.9 2940.19,632.28L3012.41,641.12C3002.75,626.1 2999.92,632.14 2980.24,627.14C2954.83,620.68 2951.95,606.74 2934.22,589.27C2923.88,579.08 2921.23,575.77 2915.01,563.8C2931.68,551.21 2925.2,578.2 2934.23,554.89C2839.24,526.62 2696.88,490.85 2593.99,489.58C2607.71,502.59 2618.91,498.87 2641.14,503.67C2668.96,509.68 2736.74,542.95 2762.64,557.64C2799.42,578.5 2889.3,622.84 2909.62,649.33L2719.7,543.27C2661.54,514.29 2561.22,482.48 2482.9,483.09C2487.55,538.73 2484.44,599.28 2484.62,655.65C2484.71,682.23 2491.27,816.41 2477.27,824.74C2458.66,807.73 2482.57,534.39 2469.7,483.94C2386.92,483.58 2313.85,494.11 2239.99,511.81L2240.02,511.79Z" style="fill:rgb(23,41,61);"/>
        <path d="M3646.1,1786.93C3635.23,1771.59 3589.05,1737.51 3575.96,1715.48C3563.74,1694.92 3566.79,1685.76 3543.73,1677.27C3546.99,1702.43 3554.13,1711.11 3567,1728.13C3578.58,1743.44 3572.74,1730.37 3583.5,1746.08C3589.78,1755.26 3590.89,1759.8 3597,1767.2C3606.94,1779.24 3649.38,1839.44 3647.45,1851.75C3632.23,1834.57 3619.19,1837.89 3609.98,1815.62C3601.83,1795.91 3596.18,1781.04 3571.26,1780.66C3571.75,1809.2 3587.45,1870.62 3591.91,1906.24C3605.41,2014.23 3618.32,2222.96 3597.04,2317.25C3684.61,2302.62 3767.69,2253.84 3840.26,2214.12C3878.54,2193.16 3872.55,2188.35 3913.48,2174.35L3853.53,2216.54C3841.37,2261.66 3834.66,2342.02 3822.23,2398.39C3813.38,2438.52 3786.69,2529.35 3770.95,2557.47C3783.1,2506.63 3802.9,2453.25 3816.24,2396.25C3830.43,2335.63 3834.65,2276.59 3845.94,2221.51C3822.92,2228.72 3676.11,2320.4 3596.26,2330.29C3601.3,2394.11 3545.79,2607.45 3519.15,2677.4C3508.43,2705.56 3483.91,2748.61 3476.59,2773.18C3535.22,2758.7 3663.24,2701.03 3705.08,2673.43C3690.32,2696.69 3595.36,2735.55 3564.69,2749.31C3442.26,2804.25 3483.62,2758.05 3440.83,2840.12C3409.66,2899.9 3298.89,3048.52 3257.39,3085.91L3400.33,3028.66C3362.68,3063.02 3293.85,3073.47 3242.42,3096.63C3232.95,3100.89 3162.81,3173.67 3114.22,3194.71C3129.48,3168.03 3197.53,3140.09 3216.14,3106.74C3178.24,3114.04 3131.86,3130.2 3088.96,3138.74C3054.5,3145.59 2981.08,3147.83 2962.42,3169.17C2932.61,3203.25 2843.55,3290.37 2788.56,3308.05C2807.55,3285.29 2854.17,3265.46 2876.42,3243.79C2902.73,3218.18 2943.53,3187.87 2948.86,3166.26L2726.07,3184.48C2705.25,3208.55 2692.4,3257.84 2667.67,3274.75C2668.3,3248.2 2667.28,3264.71 2678.51,3249.74L2709.61,3187.96L2484.89,3195.48L2484.8,3364.83C2591.18,3355.01 2699.26,3352.66 2801.12,3325.66C2905.64,3297.96 2972.65,3276.08 3064.09,3236.4C3149.95,3199.14 3225.4,3161.7 3297.46,3113.86C3310.66,3105.1 3341.48,3088.47 3351.99,3080.2C3362.13,3072.22 3364.02,3065.59 3375.39,3057.81C3487.65,2980.89 3518.35,2936.78 3609.29,2847.72L3667.57,2775.85C3766.51,2643.18 3859.9,2475.29 3902.29,2306.42C3914.72,2256.91 3915.23,2200.84 3928.89,2156.86C3937.2,2130.07 3954.3,2023.71 3936.59,2000.52L3931.59,2030.39C3889.95,1970.28 3920.89,2063.08 3884.05,1946.39C3845.17,1958.22 3849.93,1939.58 3828.26,1923.5C3804.4,1943.37 3800.52,1950.96 3734.13,1913.39C3692.54,1889.85 3714.71,1864.11 3681.42,1824.28C3670.23,1810.89 3669.41,1817.31 3659.73,1807.72C3654.73,1802.76 3649.97,1792.39 3646.12,1786.94L3646.1,1786.93Z" style="fill:rgb(23,41,61);"/>
        <path d="M1355.02,2316.56C1358.61,2259.19 1338.84,2094.69 1344.54,2054.4C1347.56,2033.07 1347.06,2049.68 1342.58,2028.73C1334.64,1991.66 1357.81,1945.86 1364.51,1903.63C1370.63,1865.05 1369.61,1801.28 1400.4,1785.56C1398.57,1842.45 1395.12,1816.08 1381.13,1859.8C1373.05,1885.05 1370.54,1913.83 1366.87,1941.52C1367.78,1945.32 1393.62,1954.29 1379.07,1991.19C1367.58,2020.32 1363.86,1994.79 1363.07,2044.85C1372.83,2049.53 1368.03,2044.29 1383,2049.1C1407.3,2056.91 1395.23,2060.85 1395.3,2062.48C1396.82,2100.83 1387.44,2077.73 1416.4,2094.6C1416.7,2122.03 1423.13,2142.47 1405.7,2148.77C1404.18,2140.42 1410.63,2117.62 1394.35,2098.18C1392.5,2095.98 1391.88,2099.37 1386.29,2087.42C1383.69,2081.86 1383.84,2078.59 1381.53,2072.84C1377.33,2062.39 1373.63,2057.47 1360.99,2056.8C1346.51,2082.26 1366.18,2088.12 1369.84,2097.68L1348.25,2090.08L1357.77,2184.84C1375.85,2176.93 1375.84,2181.23 1383.81,2164.07L1397.94,2177.53L1421.02,2158.37C1427.32,2171.98 1430.33,2188.76 1428.37,2205.86C1424.35,2240.83 1418.71,2217.36 1408.52,2215.14L1420.73,2239.75C1370.89,2217.68 1401.69,2221.77 1386.58,2189.38C1354.07,2200.69 1355.84,2207.77 1357.8,2243.68C1359.36,2272.25 1361.57,2294.48 1364.74,2324.2L1440.16,2344.83C1448.1,2333.8 1439.19,2324.41 1444.57,2320.67L1455.35,2344.11L1459.41,2319.7C1462.57,2353.23 1450.75,2350.77 1500.22,2359.91C1553.66,2369.79 1675.24,2399.06 1715.67,2397.78C1699.6,2100.98 1714.72,2094.01 1737.35,1820.48C1681.28,1813.17 1623.17,1798.95 1565.55,1785.69L1407.24,1739.05C1394.45,1764.2 1357.97,1797 1333.95,1812.36C1305.7,1830.42 1316.8,1825.97 1283.35,1830.29C1272.12,1831.74 1249.55,1842.04 1227.13,1843.41C1230.33,1873.74 1236.84,1898.68 1202.88,1898.5C1199.61,1863.16 1241.05,1858.32 1210.54,1824.48C1191.26,1827.88 1172.34,1855.24 1171.52,1880.34C1170.59,1908.72 1185.15,1933.23 1190.64,1957.62C1194.36,1974.16 1193.17,2033.87 1186.58,2047.41C1179.84,2061.26 1171.78,2060.47 1161.77,2068.81C1144.39,2083.29 1157.89,2088.83 1137.83,2090.29C1132.81,2074.16 1138.29,2069.1 1133.7,2054.18C1129.51,2040.61 1109.89,2001.2 1103.83,1966.95C1055.22,2031.91 1115.73,2147.2 1119.77,2169.83C1123.91,2193.05 1126.57,2219.01 1132.44,2241.67L1199.07,2267.18C1219.84,2250.67 1181,2290.58 1204,2260.12C1207.78,2255.11 1204.62,2257.6 1208.98,2253.85C1221.78,2242.85 1211.23,2253.4 1224.56,2246.92L1287.09,2184.76C1289.46,2186.96 1315.09,2224.46 1315.26,2224.73C1307.73,2237.88 1297.07,2234.74 1296.87,2259.02C1296.77,2271.72 1300.8,2293.51 1305.19,2302.23C1317.99,2311.69 1335.8,2319.2 1355.03,2316.57L1355.02,2316.56Z" style="fill:rgb(23,41,61);"/>
        <path d="M2470.1,980.86L2439.88,988.07C2447.78,1019.64 2464.23,1007.34 2457.95,1045.34C2417.14,1027.11 2352.24,1073.11 2328.04,1092.8C2312,1085.89 2312.08,1081.16 2288.95,1087.17C2256.34,1095.65 2286.52,1082.7 2259.26,1088.57C2218.05,1097.44 2231.21,1108.72 2205.53,1128.98C2209.34,1141.89 2205.14,1138.32 2225.05,1143.54L2212.52,1147.21L2213.52,1184.75C2191.72,1193.75 2198.62,1181.59 2190.59,1210.68L2167.33,1333.27C2140.54,1476.21 2101.66,1711.38 2100.08,1847.81C2131.45,1857.47 2436.49,1869.27 2471.58,1863.35L2472.02,1128.13L2223.53,1118.35C2241.44,1090.44 2395.54,1125.63 2471.85,1114.25L2470.09,980.86L2470.1,980.86Z" style="fill:rgb(23,41,61);"/>
        <path d="M2485.15,1126.39L2485.99,1864.72L2854.62,1851.79C2854.21,1753.96 2832.25,1621.37 2820.35,1525.9C2806.9,1417.95 2782.96,1321.12 2765.1,1215.8C2705.28,1221.12 2713.68,1244.39 2696.21,1233.5C2699.42,1229.97 2732.45,1215.01 2762.65,1182.17C2794.34,1147.71 2777.05,1168.42 2785.84,1126.52C2775.32,1125.84 2770.77,1134.66 2755.26,1141.65L2761.41,1177.3C2754.5,1165.4 2755.44,1161.75 2753.92,1144.82C2751.5,1117.93 2755.43,1128.38 2731.23,1124.84C2705.11,1121.02 2514.73,1125.06 2485.16,1126.38L2485.15,1126.39Z" style="fill:rgb(23,41,61);"/>
        <path d="M2096.99,1861.48C2097.16,2011.12 2080.24,2125.55 2086.33,2297.43L2088.95,2404.69C2089.14,2410.17 2089.4,2418.46 2090.23,2423.67L2093.84,2437.29C2142.97,2443.33 2436.38,2458.01 2472.01,2449.6L2471.04,1876.75L2097.01,1861.48L2096.99,1861.48Z" style="fill:rgb(23,41,61);"/>
        <path d="M2866.47,1845.83C2884.71,1853.22 3170.68,1823.56 3200.21,1811.39C3207.8,1759.63 3139.48,1484.49 3119.64,1425.52C3078.2,1302.37 3035.51,1194.83 2986.51,1087.38C2935.06,1096.39 2911.57,1056.66 2887.73,1076.6C2904.74,1092.75 2907.73,1089.21 2932.1,1081.82C2916.5,1096.69 2908.55,1092.12 2897.03,1092.78C2876.34,1093.97 2884.67,1096.6 2870.87,1109.72C2862.96,1113.91 2864.29,1102.03 2850.32,1108.09C2837.67,1113.57 2853.61,1115.66 2846.7,1111.04L2862.6,1063.39C2840.65,1067.7 2842.17,1081.84 2834.86,1097.45C2826.67,1114.91 2826.19,1099.79 2829.89,1115.46C2837.94,1149.6 2840.14,1117.6 2816.72,1148.2C2811.7,1154.76 2811.78,1157.77 2804.46,1166.48C2796.53,1175.92 2778.16,1188.03 2774.02,1197.79C2767.56,1213.04 2805.14,1370.38 2810.9,1404.93C2823.05,1477.84 2833.6,1548.85 2843.86,1620.58C2854.49,1694.84 2856.23,1771.96 2866.47,1845.83Z" style="fill:rgb(23,41,61);"/>
        <path d="M2863.08,2437.15C2878.43,2374.24 2868.25,1939.15 2857.64,1863.06L2486.2,1874.53L2485.52,2453.54L2863.08,2437.15Z" style="fill:rgb(23,41,61);"/>
        <path d="M2194.45,1075.06C2196.01,1051.88 2209.26,1026.63 2163.36,1049.54C2147.23,1057.59 2126.37,1075.22 2111.52,1086.12L2120.56,1102.79L2067.79,1105.2L2070.59,1088.52C2019.17,1075.63 2061.91,1086.27 2022.19,1089.64C2001.45,1091.4 1982.99,1084.6 1962.93,1084.02C1943.07,1139.12 1890.02,1271.71 1893.63,1329.95L1877.35,1312.37L1860.63,1402.66L1838.33,1388.83C1836.89,1413.55 1838.37,1424.14 1852.76,1433.83C1879.95,1452.14 1873.51,1435.19 1879.76,1436.35L1875.81,1464.22C1846.08,1470.35 1855.87,1457.02 1835.75,1483.37L1811.95,1469.67C1811.73,1512.73 1761.41,1704.77 1751.94,1813.05C1805.52,1818.83 2055.35,1856.56 2088.44,1846.77C2096.45,1815.67 2099.35,1723.64 2104.02,1682.59C2110.04,1629.71 2116.93,1575.88 2124.98,1523.56C2130.66,1486.62 2177.43,1229.36 2174.96,1221.05C2163.3,1225.75 2105.8,1302.33 2092.61,1298.57C2116.9,1252.85 2063.84,1193.64 2144.55,1134.4C2160.58,1122.63 2159.72,1131.16 2177.15,1113.18C2218.44,1070.61 2255.27,1066.21 2259.6,1027.3C2242.27,1029.39 2247.01,1038.74 2227.66,1052.6C2216.66,1060.48 2203.75,1068.49 2194.45,1075.06Z" style="fill:rgb(23,41,61);"/>
        <path d="M2083.06,2436.5C2070.86,2374.53 2074.9,2215.41 2076.19,2144.35C2077.58,2067.21 2094.41,1927.2 2087.03,1863.54L1747.19,1823.78C1715.12,1960.64 1711.73,2256.11 1726,2396.94C1754.81,2413.69 2033.58,2438.12 2083.07,2436.5L2083.06,2436.5Z" style="fill:rgb(23,41,61);"/>
        <path d="M3216.73,1820.82C3244.45,2077.89 3254.73,2128.24 3239.66,2398.71C3341.29,2385.48 3498.91,2354.18 3590.66,2319.26C3610.18,2122.74 3591.66,1924.71 3552.26,1741.78C3448.61,1765.09 3334.08,1807.66 3216.72,1820.82L3216.73,1820.82Z" style="fill:rgb(23,41,61);"/>
        <path d="M2865.73,1860.65C2869.47,1955.43 2876.26,2047.6 2878.27,2144.34C2879.83,2219.36 2884.98,2369.32 2872.66,2438.88L3227.5,2401.4C3237.23,2301.35 3239.3,2205.09 3233.37,2105.81C3227.92,2014.47 3209.78,1905.39 3207.39,1825.57L2865.74,1860.65L2865.73,1860.65Z" style="fill:rgb(23,41,61);"/>
        <path d="M2091.43,2448.61C2096.3,2574.14 2110.57,2709.08 2134.64,2831.44C2147.81,2898.38 2137.69,2896.12 2174.57,2897.7C2242.25,2900.6 2425.3,2914.2 2471.45,2907.9C2473.08,2883.74 2471.57,2857.55 2471.97,2833.03C2473,2770.62 2468.77,2812.84 2448.58,2795.59C2463.65,2781.33 2468.16,2794.59 2472.22,2772.17L2472.4,2463.43L2091.44,2448.6L2091.43,2448.61Z" style="fill:rgb(23,41,61);"/>
        <path d="M2807.73,2895.76C2839.84,2746.03 2853.39,2608.83 2863.89,2450.81L2484.8,2462.71L2486.31,2910.3L2807.73,2895.76Z" style="fill:rgb(23,41,61);"/>
        <path d="M3128.57,2859.54C3182.79,2754.77 3206.18,2548.04 3227.4,2416.3L2876.12,2451.57C2870.31,2461.35 2857.26,2651.17 2854.66,2681.64C2848.35,2755.59 2828.31,2822.72 2819.54,2896.53L3128.56,2859.53L3128.57,2859.54Z" style="fill:rgb(23,41,61);"/>
        <path d="M3143.31,2855.47C3206.57,2849.28 3282.37,2827.82 3344.05,2812.34C3376.68,2804.15 3408.7,2797.05 3439.54,2785.28C3463.92,2775.97 3465.06,2780.11 3474.79,2758.85C3571.61,2547.27 3556.26,2435.31 3590.34,2338.59L3238.82,2412.09C3232.84,2492.63 3219.24,2570.57 3202.49,2647.45C3186.19,2722.27 3160.06,2788.91 3143.3,2855.47L3143.31,2855.47Z" style="fill:rgb(23,41,61);"/>
        <path d="M3215.31,1807.73C3269.39,1803.55 3515.1,1752.92 3545.51,1734.04C3530.95,1724.03 3518.47,1692.48 3508.04,1676.24C3467.22,1612.69 3462.26,1665.57 3409.29,1583.54C3391.95,1556.69 3375.44,1547.24 3367.81,1529.64C3346.09,1479.52 3340.01,1432.62 3321.44,1384.28C3292.75,1309.59 3296.51,1323.98 3232.03,1287.36C3241.53,1277.43 3239.34,1280.33 3242.29,1279.71C3253.69,1277.33 3244.2,1285.99 3254.22,1279.42C3232.13,1259.89 3243.73,1284.04 3222.47,1250.06C3205.27,1222.57 3221.07,1255.86 3187.6,1219.97C3165.25,1196.01 3156.34,1171.06 3123.84,1154.23C3125.7,1158.1 3129.02,1164.1 3132.64,1167.33C3133.26,1167.88 3134.12,1168.57 3134.82,1169.08C3135.56,1169.62 3136.5,1170.18 3137.3,1170.68L3149.46,1176.09L3145.17,1197.96C3137.06,1191.66 3148.21,1194.49 3132.26,1186.52C3117,1178.89 3125.7,1190.3 3121.22,1173.87C3117.09,1158.71 3114.95,1134.45 3103.66,1131.88L3107.59,1170.01C3090.58,1155.96 3079.57,1139.08 3061.05,1124.24C3055.25,1119.59 3006.26,1090.14 3003.15,1089.34C3003.14,1089.58 3117.19,1378.47 3130.4,1426.15C3166.16,1555.2 3195.08,1671.24 3215.31,1807.71L3215.31,1807.73Z" style="fill:rgb(23,41,61);"/>
        <path d="M1816.03,1173.5L1844.54,1179.31C1842.13,1184.99 1821.9,1189.75 1839.23,1198.84C1846.36,1202.58 1856.13,1192.3 1872.04,1192.69C1880.22,1211.77 1887.61,1233.32 1871.95,1251.67C1846.69,1281.27 1858.65,1261.79 1841.04,1301.43C1826.74,1333.59 1728.32,1425.39 1698.84,1439.37C1671.69,1452.24 1692.54,1438.2 1672.34,1432.98C1657.06,1429.03 1631.8,1451.52 1623.19,1462.42C1610.21,1478.88 1597.09,1482.71 1577.67,1497.58C1584.03,1552.67 1591.12,1546.54 1575.76,1602.15L1545.52,1607.58C1544.82,1607.64 1543.69,1607.7 1543.02,1607.77C1526.65,1609.44 1547.53,1612.69 1525.71,1610.66C1528.82,1590.1 1535.17,1578.28 1541.05,1560.05C1553.7,1520.82 1546.75,1539.97 1525.35,1520.53C1534.02,1509.2 1544.92,1502.08 1536.42,1485.51L1487.65,1491.82C1486.89,1458.24 1511.54,1488.53 1504.36,1449.01C1451.61,1468.05 1463.89,1481.9 1444.43,1480.11C1424.8,1478.31 1452.91,1473.16 1437.67,1478.43L1437.62,1501.48L1450.63,1503.29C1438.22,1511.12 1439.09,1508.18 1440.26,1523.59C1467.93,1519.42 1467.95,1513.07 1484.03,1535.85L1465.96,1543.11C1454.42,1547.08 1459.55,1543.17 1451.18,1550.66C1413.51,1584.35 1434.39,1569.86 1434.61,1627.72C1434.84,1685.76 1434.87,1663.89 1419.76,1669.81C1429.45,1685.76 1432.15,1677.52 1427.2,1698.68C1423.9,1712.82 1418.58,1722.65 1414.49,1736.64C1505.53,1749.43 1651.78,1810.66 1742.9,1808.44C1754.25,1726.01 1756.87,1704.22 1773.81,1624.24C1775.81,1614.79 1777.81,1605.41 1780.05,1595.88C1784.29,1577.83 1788.03,1575.84 1779.9,1566.32C1767.76,1589.99 1763.52,1612.47 1748.65,1638.51C1718.93,1632.33 1760.03,1625.18 1728.61,1638.51C1718.03,1643 1731.2,1639.25 1716.92,1638.88C1715.05,1638.83 1712.5,1639.09 1710.25,1639.04L1694.05,1638.29C1692.9,1638.59 1688.97,1640.77 1687.89,1641.57C1678.18,1648.84 1675.08,1656.2 1664.35,1662.4C1657.76,1641.32 1665.91,1639.34 1662.12,1633.31C1649.14,1635.23 1635.78,1634.29 1621.62,1637.47C1605.94,1640.99 1599.22,1645.66 1589.29,1629.75C1617.6,1620.33 1638.01,1596.55 1677.43,1613.01L1706.15,1576.12C1718.08,1580.32 1702.69,1599.14 1737.72,1573.36C1749.95,1564.36 1758.24,1555.59 1765.78,1539.93C1771.41,1528.24 1771.42,1507.71 1782.68,1500.59C1792.46,1494.41 1807.19,1504.22 1799.56,1471.21L1784.67,1485.08C1780.87,1473.53 1783.38,1467.02 1788.65,1459.96C1799.34,1445.63 1811.26,1459.57 1831.71,1395.44C1843.57,1358.26 1857.88,1328.55 1870.4,1292.24C1877.99,1270.22 1876.27,1257.17 1885.75,1239.17C1889.56,1231.91 1893.18,1221.61 1897.38,1215.73C1906.66,1202.75 1904.39,1215.68 1915.45,1196.02C1931.65,1167.21 1944.15,1120.09 1955.34,1085.98L1816.02,1173.54L1816.03,1173.5Z" style="fill:rgb(23,41,61);"/>
        <path d="M2485.17,3184.47C2529.67,3188.6 2587.98,3182.7 2634.37,3180.4C2696.18,3177.33 2717.88,3190.08 2737.8,3135.74C2760.67,3073.37 2795.92,2977.4 2805.39,2908.62L2484.11,2919.5L2485.17,3184.48L2485.17,3184.47Z" style="fill:rgb(23,41,61);"/>
        <path d="M2734.06,3172.45C2782.25,3172.76 2847.35,3165.94 2896,3159.83C2985.17,3148.63 2966.07,3159.42 3007.54,3099.37C3031.63,3064.48 3118.02,2918.97 3123.37,2874.23L2814.79,2906.09C2806.2,2955.6 2733.98,3167.05 2734.06,3172.46L2734.06,3172.45Z" style="fill:rgb(23,41,61);"/>
        <path d="M2984.55,3149.28C3042.44,3137.22 3098.03,3127.06 3155.53,3113.34C3237.26,3093.84 3242.88,3090.7 3286.77,3041.91C3325.02,2999.4 3427.7,2868.36 3451.01,2798.4L3139.6,2868.71C3118.6,2920.42 3096.83,2964.26 3068.2,3014.55C3054.44,3038.72 3045.43,3059.71 3029.5,3083.22C3019.81,3097.52 2988.04,3139.78 2984.54,3149.29L2984.55,3149.28Z" style="fill:rgb(23,41,61);"/>
        <path d="M3807.11,1300.62C3798.32,1288.87 3781.14,1249.53 3768.01,1227.26C3765.95,1269.98 3786.18,1297.52 3796.61,1346.29C3800.24,1363.27 3807.38,1387.04 3812.91,1401.07C3815.08,1406.59 3814.26,1406.33 3816.7,1411.65C3859.63,1505.43 3829.89,1519.11 3848.25,1576.95C3857.9,1607.37 3886.9,1656.39 3879.86,1688.4L3843.19,1608.69C3796.21,1613.36 3797.34,1599.07 3805.34,1646.68C3777.68,1646.76 3762.53,1638.94 3757.19,1681.11C3753.47,1710.53 3764.86,1728.17 3767.72,1756.59C3772.27,1801.92 3790.96,1860.64 3817.7,1878.59C3854.79,1864.3 3837.44,1816.35 3832,1781.31C3827.34,1751.33 3822.13,1702.88 3815.04,1675.68L3840.14,1799.39L3865.5,1782.1L3868.29,1893.76C3904.27,1897.84 3874.51,1876.15 3897.16,1886.98C3924.55,1905.07 3888.04,1961.63 3927.77,1997.85C3985.13,1947.56 3933.77,1652.19 3911.39,1571.4C3898.99,1526.63 3834.08,1336.63 3807.13,1300.61L3807.11,1300.62Z" style="fill:rgb(23,41,61);"/>
        <path d="M1926.28,2884.24C1941.98,2912.77 1964.7,2910.39 1984.65,2973.76C2000.33,3023.55 1962,3037.48 1969.52,3102.26L1951.37,3113.72C1980.1,3118.06 1960.85,3143.53 1998.47,3151.56C2019.69,3156.09 2049.28,3159.23 2071.81,3162.3C2119.91,3168.85 2178.43,3172.86 2226.25,3175.46C2225.95,3173.06 2141.04,2907.26 2139.36,2906.53L1926.27,2884.23L1926.28,2884.24Z" style="fill:rgb(23,41,61);"/>
        <path d="M4174.28,2674.81L4234.81,2696.45C4244.7,2682.14 4287.2,2469.03 4293.71,2429.97C4301.47,2383.4 4309.36,2338.71 4321.99,2293.64C4328.7,2269.68 4360.81,2177.5 4360.28,2164.63C4250.79,2155.39 4234.02,2266.22 4213.44,2360.52C4197.53,2433.4 4176.58,2599.82 4174.27,2674.8L4174.28,2674.81Z" style="fill:rgb(240,235,205);"/>
        <path d="M721.61,2698.86C732.59,2694.97 736.63,2688.97 747.99,2684.36C754.71,2681.64 771.22,2675.79 779.51,2674C782.01,2612.08 756.13,2427.91 743.95,2361.72C735.62,2316.41 726,2264.21 704.36,2229.52C672.72,2178.8 668.57,2161.28 594.12,2164.2C593.7,2175.53 626.73,2262.84 633.58,2289.13C645.1,2333.36 654.3,2380.16 661.95,2425.42C677.87,2519.73 699.72,2607.3 721.62,2698.86L721.61,2698.86Z" style="fill:rgb(240,235,205);"/>
        <path d="M3372.83,888.24L3366.1,868.65L3428.13,898.16C3411.46,909.1 3424.28,893.83 3411.84,903.23C3403.99,909.16 3426.01,907.4 3405.93,913.71L3383.99,892.71L3375.49,905.9C3382.98,925.28 3379.88,902.29 3387.3,935.71C3394.28,967.1 3415.91,1012.27 3445.5,1026.86C3463.1,1035.54 3458.96,1033.32 3472.59,1046.21C3492.99,1065.52 3479.41,1048.69 3498.2,1054.92C3520.2,1062.22 3547.92,1075.57 3575.63,1078.11C3586.07,1092.22 3614.86,1138.33 3640.19,1141.98C3638.24,1128.12 3607.34,1097.32 3597.92,1081.35C3586.64,1062.24 3566.14,1010.28 3529.1,992.04C3510.76,983 3530.75,990.37 3501.58,959.26C3489.55,946.43 3461.42,918.02 3457.14,906.61C3483.74,910.49 3523.12,936.97 3536.05,954.09C3539.24,958.31 3535.07,971.39 3554.49,961.78L3535.77,938.37L3560.06,949.85C3539.15,921.71 3437.5,826.95 3415.1,816.91C3427.21,845.36 3460.54,850.9 3488.56,896.99C3467.84,894.59 3444.79,883.2 3435.61,869.75C3420.15,885.28 3442.26,878.16 3434.08,891.27C3413.52,868.03 3440.25,883.81 3404.71,868.38C3405.23,844.72 3414.46,859.41 3392.53,835.06C3367.47,807.24 3296.69,772.04 3285.22,775.41C3259.89,782.86 3293.19,790.85 3301.45,795.8C3311.17,801.61 3318.8,811.32 3334.28,820.61C3374.67,844.86 3332.21,852.54 3372.84,888.22L3372.83,888.24Z" style="fill:rgb(23,41,61);"/>
        <path d="M1673.5,3055.14C1730.73,3084.76 1644.22,3073.62 1803.24,3116.91C1847.89,3129.06 1916.75,3145.15 1965.41,3144.78C1961.48,3083.49 1938.44,3143.4 1905.24,3102.75C1883.72,3109.07 1924.38,3117.23 1870.81,3103.48C1822.7,3091.13 1828.44,3082.22 1786.91,3048.05L1769.6,3042.08L1761.64,3010.1C1751.74,3023.47 1753.16,3024.5 1746.35,3035.5C1705.68,2985.59 1689.28,2974.79 1602.94,2967.5C1612.35,2987.51 1665.13,3036.55 1673.5,3055.14Z" style="fill:rgb(23,41,61);"/>
        <path d="M875.19,2666.02C876.57,2662.21 895.39,2384.12 785.05,2372.17C792.38,2427.68 801.7,2485.55 809.04,2541.95C826.72,2677.73 822.41,2672.2 875.19,2666.02Z" style="fill:rgb(240,235,205);"/>
        <path d="M4081.49,2667.67L4124.88,2664.65L4170.27,2372.29C4118.33,2379.14 4103.05,2432.7 4088.93,2485.27C4082.29,2509.99 4075.43,2647.37 4081.5,2667.67L4081.49,2667.67Z" style="fill:rgb(240,235,205);"/>
    </g>
</svg>
